<?xml version="1.0" encoding="iso-8859-1"?>
<!-- Generator: Adobe Illustrator 18.0.0, SVG Export Plug-In . SVG Version: 6.00 Build 0)  -->
<!DOCTYPE svg PUBLIC "-//W3C//DTD SVG 1.1//EN" "http://www.w3.org/Graphics/SVG/1.1/DTD/svg11.dtd">
<svg version="1.1" id="Capa_1" xmlns="http://www.w3.org/2000/svg" xmlns:xlink="http://www.w3.org/1999/xlink" x="0px" y="0px"
	 viewBox="0 0 412 412" style="enable-background:new 0 0 412 412;" xml:space="preserve">
<polygon style="fill:#B6CCE0;" points="400.855,274.91 400.855,376.14 263.665,376.14 158.855,376.14 158.855,356.63 
	158.855,314.91 118.855,314.91 158.855,274.91 263.665,274.91 "/>
<polygon style="fill:#E59683;" points="400.855,167.55 400.855,240.19 263.665,240.19 158.855,240.19 118.855,240.19 
	158.855,200.19 158.855,167.55 263.665,167.55 "/>
<polygon style="fill:#B6CCE0;" points="400.855,29.55 400.855,133.55 263.665,133.55 158.855,133.55 118.855,133.55 158.855,93.55 
	158.855,53.16 158.855,29.55 263.435,29.55 "/>
<polygon style="fill:#E2E0D0;" points="263.665,240.19 263.665,274.91 158.855,274.91 118.855,314.91 158.855,314.91 
	158.855,356.63 11.145,356.63 11.145,53.16 158.855,53.16 158.855,93.55 118.855,133.55 158.855,133.55 263.665,133.55 
	263.665,167.55 158.855,167.55 158.855,200.19 118.855,240.19 158.855,240.19 "/>
<path style="fill:#4D4D4D;" d="M263.665,376.14v2.37c0,18.5-14.99,33.49-33.49,33.49H44.635c-18.49,0-33.49-14.99-33.49-33.49
	v-21.88h147.71v19.51H263.665z"/>
<path style="fill:#4D4D4D;" d="M263.435,29.55h-104.58v23.61H11.145V33.49C11.145,15,26.145,0,44.635,0h185.54
	C247.335,0,261.485,12.91,263.435,29.55z"/>
<rect x="195.855" y="57.55" style="fill:#808080;" width="168" height="20"/>
<rect x="195.855" y="87.55" style="fill:#808080;" width="97" height="20"/>
<rect x="195.855" y="300.52" style="fill:#808080;" width="168" height="20"/>
<rect x="195.855" y="330.52" style="fill:#808080;" width="95" height="20"/>
<rect x="195.855" y="193.87" style="fill:#808080;" width="168" height="20"/>
<g>
</g>
<g>
</g>
<g>
</g>
<g>
</g>
<g>
</g>
<g>
</g>
<g>
</g>
<g>
</g>
<g>
</g>
<g>
</g>
<g>
</g>
<g>
</g>
<g>
</g>
<g>
</g>
<g>
</g>
</svg>
