<?xml version="1.0" encoding="iso-8859-1"?>
<!-- Generator: Adobe Illustrator 19.0.0, SVG Export Plug-In . SVG Version: 6.00 Build 0)  -->
<svg version="1.1" id="Capa_1" xmlns="http://www.w3.org/2000/svg" xmlns:xlink="http://www.w3.org/1999/xlink" x="0px" y="0px"
	 viewBox="0 0 512 512" style="enable-background:new 0 0 512 512;" xml:space="preserve">
<g>
	<path style="fill:#D9EEF7;" d="M405.333,416v64c-0.035,11.768-9.566,21.298-21.333,21.333H128
		c-11.767-0.035-21.298-9.566-21.333-21.333v-64H405.333z"/>
	<path style="fill:#D9EEF7;" d="M405.333,32v64H106.667V32c0.035-11.767,9.566-21.298,21.333-21.333h256
		C395.768,10.702,405.298,20.233,405.333,32z"/>
</g>
<path style="fill:#AAC4DA;" d="M405.333,96v320h-32H138.667h-32V96h32h234.667H405.333z"/>
<path style="fill:#FFE451;" d="M298.667,138.667l64,64H320c-11.767-0.035-21.298-9.566-21.333-21.333V138.667z"/>
<path style="fill:#D9EEF7;" d="M362.667,202.667V384H149.333V160c0.035-11.767,9.566-21.298,21.333-21.333h128v42.667
	c0.035,11.767,9.566,21.298,21.333,21.333H362.667z"/>
<g>
	<path style="fill:#4C5B66;" d="M384,0H128c-17.673,0-32,14.327-32,32v448c0,17.673,14.327,32,32,32h256c17.673,0,32-14.327,32-32
		V32C416,14.327,401.673,0,384,0z M394.667,480c0,5.891-4.776,10.667-10.667,10.667H128c-5.891,0-10.667-4.776-10.667-10.667V32
		c0-5.891,4.776-10.667,10.667-10.667h256c5.891,0,10.667,4.776,10.667,10.667V480z"/>
	<path style="fill:#4C5B66;" d="M138.667,85.333h234.667v21.333H138.667V85.333z"/>
	<path style="fill:#4C5B66;" d="M138.667,405.333h234.667v21.333H138.667V405.333z"/>
	<path style="fill:#4C5B66;" d="M170.667,42.667h128V64h-128V42.667z"/>
	<path style="fill:#4C5B66;" d="M320,42.667h21.333V64H320V42.667z"/>
	<path style="fill:#4C5B66;" d="M245.333,448h21.333v21.333h-21.333V448z"/>
	<path style="fill:#4C5B66;" d="M306.208,131.125c-2-2.001-4.713-3.125-7.541-3.125h-128c-17.673,0-32,14.327-32,32v224H160V160
		c0-5.891,4.776-10.667,10.667-10.667H288v32c0,17.673,14.327,32,32,32h32V384h21.333V202.667c-0.001-2.829-1.125-5.541-3.125-7.541
		L306.208,131.125z M309.333,181.333v-16.917L336.917,192H320C314.109,192,309.333,187.224,309.333,181.333z"/>
	<path style="fill:#4C5B66;" d="M192,256h128v21.333H192V256z"/>
	<path style="fill:#4C5B66;" d="M192,298.667h128V320H192V298.667z"/>
	<path style="fill:#4C5B66;" d="M298.667,341.333H320v21.333h-21.333V341.333z"/>
	<path style="fill:#4C5B66;" d="M256,341.333h21.333v21.333H256V341.333z"/>
</g>
<g>
</g>
<g>
</g>
<g>
</g>
<g>
</g>
<g>
</g>
<g>
</g>
<g>
</g>
<g>
</g>
<g>
</g>
<g>
</g>
<g>
</g>
<g>
</g>
<g>
</g>
<g>
</g>
<g>
</g>
</svg>
